<?xml version="1.0"?>
<svg width="315" height="120" xmlns="http://www.w3.org/2000/svg" xmlns:svg="http://www.w3.org/2000/svg">
 <g class="layer">
  <title>Layer 1</title>
  <path clip-rule="evenodd" d="m150.56,0c-33.06,0 -59.86,26.8 -59.86,59.86c0,33.06 26.8,59.86 59.86,59.86s59.86,-26.8 59.86,-59.86s-26.8,-59.86 -59.86,-59.86zm3.96,11.07c15.06,1.21 28.19,9.23 36.32,20.98l-27.87,16.08a17.02,17.02 0 0 0 -8.45,-4.89l0,-32.17zm-7.93,0l0,32.17a17.02,17.02 0 0 0 -8.46,4.89l-27.88,-16.08c8.14,-11.76 21.28,-19.78 36.34,-20.98l0,0zm-40.24,69.85c-6.14,-12.91 -6.55,-28.3 -0.1,-41.96l27.9,16.03a17.01,17.01 0 0 0 0.03,9.77l-27.83,16.16zm5.95,9.48a48.2,48.2 0 0 1 -1.78,-2.36l27.97,-16.17a17,17 0 0 0 7.71,4.44l0,32.32c-13.7,-1.21 -25.78,-8.07 -33.9,-18.23zm38.26,-21.85a8.7,8.7 0 1 1 0,-17.41a8.7,8.7 0 0 1 8.69,8.7c0,4.81 -3.89,8.71 -8.69,8.71zm4.36,40.08l0,-32.32a16.99,16.99 0 0 0 7.72,-4.44l27.98,16.16c-8.07,11.46 -20.94,19.3 -35.7,20.6zm12.11,-44.3c0.88,-3.2 0.76,-6.54 -0.09,-9.33l27.89,-16.1c6.95,14.39 5.52,30.32 0.17,41.57l-27.97,-16.14l0,0zm-122.99,-30.43c2.19,7.17 7.73,12.27 14.21,12.27l0,0c6.23,0 19.28,-0.25 30.88,-0.65c3.59,-15.52 12.92,-28.84 25.63,-37.61l-56.51,0c-6.48,0 -12.02,5.12 -14.22,12.31l-5.44,0c-1.4,0 -3.49,1.7 -3.49,6.84c0,5.14 2.09,6.84 3.49,6.84l5.45,0zm270.63,-25.9l0,26.2l-72.38,4.41c-0.51,3.02 -2.54,6.33 -7.44,7.43l-21.94,5.23c-2.45,-17.94 -12.44,-33.47 -26.68,-43.29l128.44,0.02zm-199.78,23.14l0,0l0,0zm22.75,13.11l-22.75,-13.11c7.13,-8.93 17.31,-14.8 28.56,-16.49l0.01,26.26a19.49,19.49 0 0 0 -5.82,3.34zm-29.77,32.19l22.7,-13.19a19.41,19.41 0 0 1 0,-6.71l-22.78,-13.07c-4.14,10.6 -4.12,22.35 0.08,32.97l0,0zm49.78,-35.45l0.05,-26.32c11.25,1.69 21.38,7.54 28.5,16.47l-22.8,13.1c-1.73,-1.45 -3.63,-2.47 -5.75,-3.25zm38.52,14.14a44.6,44.6 0 0 0 -2.86,-11.71l-22.83,13.12c0.18,1.09 0.29,2.18 0.29,3.28c0,0.45 -0.02,0.91 -0.05,1.35l25.45,-6.04zm-125.35,33.67c-10.83,8.9 -28.72,17.1 -38.78,19.75c-10.06,2.64 -18.11,4.2 -32.04,4.2l0,7.25c11.46,0 21.38,-0.05 37.6,-2.43c20.03,-2.94 42.47,-11.02 60.93,-22.37c-4.97,-7.17 -8.3,-15.31 -9.94,-24.22c-5,6.14 -11.21,12.44 -17.77,17.82zm79.74,-34.57c3.08,0 5.6,2.52 5.6,5.61a5.61,5.61 0 0 1 -5.6,5.61a5.62,5.62 0 0 1 -5.61,-5.61a5.62,5.62 0 0 1 5.61,-5.61z" fill="#000000" fill-rule="evenodd" id="svg_1"/>
 </g>
</svg>